<svg id="Camada_1" data-name="Camada 1" xmlns="http://www.w3.org/2000/svg" viewBox="0 0 1029.53 438.35"><defs><style>.cls-1,.cls-2{fill:#032553;}.cls-1{fill-rule:evenodd;}</style></defs><path class="cls-1" d="M766.74,238.87h24.64v16H766.74a5.87,5.87,0,0,1-6-6v-4.1a5.86,5.86,0,0,1,6-6m9,39.39,15.62-15.62v15.62h25V212a29.11,29.11,0,0,0-29.12-29.32h-40V206H783c5.6,0,8.43,3.26,8.43,8.63v5.14H765.1c-15.08,0-29.32,10.91-29.32,26.66v5.13c0,15.82,14.27,26.66,29.32,26.66Z"/><path class="cls-1" d="M383.48,206H402c4.19,0,6.78,3.71,6.78,7.6,0,4.05-2.18,8.43-6.78,8.43H377.51V212a5.87,5.87,0,0,1,6-6m44.1,72.22V254.9h-44.1a5.88,5.88,0,0,1-6-6v-7.48l13.13-.12H404.2c17.69,0,28.92-11.91,28.92-29.53,0-16.73-12.59-29.12-29.33-29.12H381.63A29.28,29.28,0,0,0,352.31,212v36.93a29.42,29.42,0,0,0,29.32,29.33Z"/><path class="cls-1" d="M944.73,206V182.68H926.5L910.88,198.3V158.06H885.67v90.87A29.16,29.16,0,0,0,915,278.26h29.74V254.9H916.84a5.87,5.87,0,0,1-6-6V206Z"/><path class="cls-1" d="M880.53,206V182.68H850.8A29.16,29.16,0,0,0,821.47,212v66.26h25.21V212a5.86,5.86,0,0,1,6-6Z"/><path class="cls-1" d="M706,278.26h25V212c0-16.14-12.42-29.33-28.72-29.33H636.86l-16,15.41V182.67H595.66v95.59h25.21V206H645.3a5.86,5.86,0,0,1,6,6v66.26h25.21V211.59a5.22,5.22,0,0,0,0-1L674.91,206h25.17a5.86,5.86,0,0,1,6,6Z"/><path class="cls-1" d="M513.25,254.9v23.36h48a29.16,29.16,0,0,0,29.33-29.33V247.5c0-16.55-13.25-27.69-29.33-27.69H540.52c-3.86,0-5.88-3.27-6-6.76-.35-3.5,2.29-7,6-7H585V182.68H540.52A29.11,29.11,0,0,0,511.2,211.8v1.84c0,16.65,13.59,27.07,29.53,27.07h20.92c3.66,0,6.17,3.58,6.17,7,0,3.58-2.24,7.2-6.17,7.2Z"/><path class="cls-1" d="M508.51,206V182.68H466.87A29.16,29.16,0,0,0,437.55,212v36.93a29.15,29.15,0,0,0,29.32,29.33h41.64V254.9H468.72a5.88,5.88,0,0,1-6-6V212a5.87,5.87,0,0,1,6-6Z"/><path class="cls-1" d="M347.39,206V182.68H329.16L313.54,198.3V158.05H288.33v90.88a29.16,29.16,0,0,0,29.32,29.33h29.74V254.9H319.5a5.87,5.87,0,0,1-6-6V206Z"/><path class="cls-1" d="M957.42,133.8A11.18,11.18,0,1,1,946.24,145a11.2,11.2,0,0,1,11.18-11.18m0,24.23a13,13,0,1,0-13-13.05A13.07,13.07,0,0,0,957.42,158Zm-2.93-17.78h3.32a3.15,3.15,0,0,1,1.4.25,1.83,1.83,0,0,1,.83,1.77,1.61,1.61,0,0,1-.86,1.62,3.36,3.36,0,0,1-1.45.24h-3.24Zm0,6.26h2.94a2.48,2.48,0,0,1,1.72.46,2.75,2.75,0,0,1,.47,1.84l0,1.34a7.36,7.36,0,0,0,.13,1.25c0,.19.1.45.2.77h3.32v-.36a1.21,1.21,0,0,1-.55-.83,6.64,6.64,0,0,1-.08-1.34v-1a4.68,4.68,0,0,0-.42-2.25,2.74,2.74,0,0,0-1.41-1.14,2.89,2.89,0,0,0,1.71-1.41,4.25,4.25,0,0,0,.52-2,4,4,0,0,0-.27-1.51,4.67,4.67,0,0,0-.72-1.22,3.51,3.51,0,0,0-1.35-1,6.28,6.28,0,0,0-2.28-.38h-6.9v14.43h3Z"/><path class="cls-1" d="M257,165.08a44.89,44.89,0,0,0-44.89-44.87c-.63,0-1.23,0-1.83.05v-.05H105.79v.05c-.6-.05-1.2-.05-1.83-.05a44.9,44.9,0,0,0-44.9,44.87c0,.62,0,1.25,0,1.85h0V282.06a36.09,36.09,0,0,0,36.09,36.09h0L95,166.93a10.83,10.83,0,0,1,10.83-10.83H210.28a10.83,10.83,0,0,1,10.82,10.83V271.42a10.83,10.83,0,0,1-10.82,10.83h-64.4l-39.41,35.9H210.28v0c.6,0,1.2,0,1.83,0A44.9,44.9,0,0,0,257,273.27c0-.62,0-1.25-.05-1.85H257V166.93H257C257,166.33,257,165.7,257,165.08Z"/><path class="cls-2" d="M203.49,165.13H113.15a8.46,8.46,0,0,0-8.44,8.47V253h0v54.87l37.46-34.74,61.32.07a8.45,8.45,0,0,0,8.43-8.47V173.6A8.46,8.46,0,0,0,203.49,165.13Z"/></svg>